<svg xmlns="http://www.w3.org/2000/svg" viewBox="0 0 64 64" fill="none">
  <rect width="64" height="64" rx="18" fill="#12355D" />
  <path
    d="M18 44V20h10.2c4.12 0 6.9 2.36 6.9 6.08 0 2.48-1.3 4.42-3.52 5.4 2.88.8 4.68 3 4.68 5.98 0 4.2-3.2 6.54-8.18 6.54H18Zm6.12-14.16h3.16c1.78 0 2.86-.94 2.86-2.46 0-1.5-1.08-2.42-2.86-2.42h-3.16v4.88Zm0 9.24h3.76c2.12 0 3.36-1 3.36-2.76 0-1.72-1.24-2.72-3.36-2.72h-3.76v5.48Z"
    fill="#F6F1E7"
  />
  <path
    d="M42 44V20h4.7l7.3 12.76L61.3 20H66v24h-5.64V30.08L54 41.08h-.16L47.64 30V44H42Z"
    fill="#C48A3A"
    transform="translate(-6)"
  />
</svg>
